<?xml version="1.0" encoding="utf-8"?>
<!-- Generator: Adobe Illustrator 25.3.1, SVG Export Plug-In . SVG Version: 6.00 Build 0)  -->
<svg version="1.1" id="Layer_1" xmlns="http://www.w3.org/2000/svg" xmlns:xlink="http://www.w3.org/1999/xlink" x="0px" y="0px"
	 viewBox="0 0 30 30" style="enable-background:new 0 0 30 30;" xml:space="preserve">
<style type="text/css">
	.st0{fill:#F8F8F8;}
</style>
<path class="st0" d="M22.2,17.3L21,15.2l0.2-0.4c0.2-0.4,0.4-0.8,0.5-1.2l0.2-0.5l2.3-0.5v-1.9l-2.3-0.5l-0.2-0.5
	c-0.2-0.4-0.3-0.9-0.5-1.2L21,8.3l1.3-1.9L21,5L19,6.4l-0.4-0.2c-0.4-0.2-0.8-0.4-1.2-0.5l-0.5-0.2l-0.5-2.3h-1.9l-0.5,2.3l-0.5,0.2
	c-0.4,0.2-0.9,0.3-1.2,0.5l-0.4,0.2L10.2,5L8.8,6.4l1.3,1.9L9.9,8.7C9.7,9.1,9.5,9.5,9.5,9.9l-0.2,0.4L7,10.8v1.9l2.3,0.5l0.2,0.5
	c0.2,0.4,0.3,0.9,0.5,1.2l0.2,0.4L8.9,17l-1.3-0.9L8.3,15c-0.1-0.2-0.2-0.4-0.2-0.6l-2.7-0.5V9.6L8.1,9c0.1-0.2,0.2-0.4,0.2-0.6
	L6.8,6.1L9.9,3l2.3,1.5c0.2-0.1,0.4-0.2,0.6-0.2l0.5-2.7h4.4l0.5,2.7c0.2,0.1,0.4,0.2,0.6,0.2L21.2,3l3.1,3.1l-1.5,2.3
	C22.9,8.6,22.9,8.8,23,9l2.7,0.5v4.4L23,14.5c-0.1,0.2-0.2,0.5-0.2,0.6l0.8,1.3L22.2,17.3z M15.5,15.6c-2.2,0-3.9-1.7-3.9-3.9
	s1.7-3.9,3.9-3.9s3.9,1.7,3.9,3.9S17.7,15.6,15.5,15.6z M15.5,9.4c-1.3,0-2.3,1-2.3,2.3s1,2.3,2.3,2.3c1.3,0,2.3-1,2.3-2.3
	S16.9,9.4,15.5,9.4z M16,28.7c-0.2,0-0.4,0-0.6-0.1l-6.9-2.1l-3.7,0.9l-1.9-5.9L5,20.3c1.6-1,3.6-1.6,5.5-1.6h8.1v1.6
	c0,0.4-0.1,0.8-0.2,1.2l6-3.3c1.2-0.7,2.8-0.2,3.4,1c0,0,0,0.1,0.1,0.1c0.6,1.2,0.2,2.7-1,3.4l-9.7,5.8C16.9,28.6,16.5,28.7,16,28.7
	z M8.5,25l7.3,2.2c0.2,0.1,0.5,0,0.6-0.2l9.7-5.8c0.5-0.2,0.6-0.9,0.4-1.3s-0.9-0.7-1.3-0.5l0,0l-7.2,3.9H14v-1.6h1.6
	c0.9,0,1.6-0.7,1.6-1.6h-6.6c-1.6,0-3.3,0.5-4.7,1.3l-1,0.6l1.1,3.4L8.5,25z"/>
</svg>
